<svg width="68" height="68" viewBox="0 0 68 68" fill="none" xmlns="http://www.w3.org/2000/svg">
<path d="M68 34C68 15.2223 52.7777 0 34 0C15.2223 0 0 15.2223 0 34C0 52.7777 15.2223 68 34 68C52.7777 68 68 52.7777 68 34Z" fill="#F9F9F9"/>
<path d="M65.0435 34C65.0435 16.8551 51.1449 2.95648 34 2.95648C16.8552 2.95648 2.95654 16.8551 2.95654 34C2.95654 51.1448 16.8552 65.0434 34 65.0434C51.1449 65.0434 65.0435 51.1448 65.0435 34Z" fill="#62C4EC"/>
<path fill-rule="evenodd" clip-rule="evenodd" d="M56.9096 31.4292C56.9096 39.2254 50.8136 45.5454 43.2939 45.5454C35.7742 45.5454 29.6782 39.2254 29.6782 31.4292C29.6782 23.633 35.7742 17.3129 43.2939 17.3129C50.8136 17.3129 56.9096 23.633 56.9096 31.4292Z" fill="#FAE75D"/>
<path fill-rule="evenodd" clip-rule="evenodd" d="M27.7974 27.7083C31.5877 27.7083 34.8357 29.8541 36.5626 32.9468C37.5347 32.2187 38.7763 31.7475 40.1389 31.7475C43.2358 31.7475 45.7491 34.0095 45.7491 36.7966C45.7491 37.4225 45.6302 38.0104 45.3986 38.5637C48.9207 39.9795 51.3593 43.1867 51.3593 46.8947C51.3593 51.9297 46.8555 55.983 41.261 55.983H21.0652C15.4707 55.983 10.9668 51.9297 10.9668 46.8947C10.9668 42.9059 13.8123 39.5413 17.7686 38.3113C17.7686 38.1398 17.699 37.9811 17.699 37.8066C17.699 32.2323 22.2231 27.7083 27.7974 27.7083Z" fill="white"/>
</svg>
